<svg version="1" xmlns="http://www.w3.org/2000/svg" width="682.667" height="682.667" viewBox="0 0 512.000000 512.000000"><path d="M33.3 192.2c.1 87.6.5 160.2.9 161.3 1.4 4.5 4.9 12.7 6.5 15.3 4.2 7 7.1 11 10 14.2 1.7 1.9 4 4.4 5 5.5 3.5 3.9 15.8 14.3 22.9 19.3 18.9 13.3 48 28.5 76.4 39.9 4.7 1.9 9.4 3.8 10.5 4.3 9 4.4 58.7 20.6 81.3 26.5l10.3 2.7 8.2-2.2c33.5-8.9 77.1-23.6 99.2-33.5 2.8-1.2 7-3.1 9.5-4.1 10.1-4.2 36.2-17.6 46.4-23.8 27.1-16.6 46.6-35.2 54.6-52.1 6.4-13.7 6-1.2 6-174.6V33H33l.3 159.2zm415.4 4.5c-.1 72.5-.6 133.1-1 134.8-3.2 12.6-15.2 29.1-29.9 41.2-3.9 3.2-7.6 6.3-8.2 6.9-1.7 1.6-18.3 12.6-27.1 17.9-10.5 6.4-36 19.1-51 25.5-11.9 5.1-31.6 12.9-34.5 13.6-.8.2-6.2 2-12 3.9-5.8 2-11.4 3.9-12.6 4.1-1.2.2-4 1-6.3 1.8-2.2.9-4.1 1.3-4.1 1.1 0-.3-1.1 0-2.5.5-2.5 1-12.5-1.5-32-7.8-9.4-3.1-29.5-10.5-33-12.2-1.1-.5-6-2.6-10.9-4.6-4.9-1.9-9.6-4-10.5-4.5-.9-.4-6.8-3.3-13.3-6.4-43.5-20.6-75.7-45.6-88.1-68.5-7.1-13-6.7-4.5-6.7-148.9V65h384l-.3 131.7z"/><path d="M101.9 99.2c0 1.3-.1 50.5-.1 109.3l-.1 107 2.9 5.9c2.6 5.3 12.4 16.5 19 21.6 4.7 3.7 18.2 12.5 26.9 17.6 24.8 14.6 94.1 41.7 106.5 41.7 7.3 0 51.5-15.4 75-26 7.1-3.3 26.6-12.8 29-14.3 14.4-8.5 18.1-10.8 21.1-13.2 2-1.5 4-2.8 4.3-2.8 1 0 7.5-5.8 14.2-12.6 3.3-3.5 7.3-8.9 8.9-12.1l2.8-5.8-.1-107.5c0-59.1-.1-108.3-.1-109.3-.1-1.6-8.2-1.7-155.1-1.7H102l-.1 2.2z"/></svg>